
<svg width="64" height="64" viewBox="0 0 64 64" fill="none" xmlns="http://www.w3.org/2000/svg">
  <path d="M32 2C19.297 2 9 12.297 9 25C9 39.5 32 62 32 62C32 62 55 39.5 55 25C55 12.297 44.703 2 32 2Z" fill="#095B95"/>
  <circle cx="32" cy="25" r="13" fill="white"/>
  <path d="M36 22H34V20C34 19.4477 33.5523 19 33 19H31C30.4477 19 30 19.4477 30 20V22H28C27.4477 22 27 22.4477 27 23V25C27 25.5523 27.4477 26 28 26H30V28C30 28.5523 30.4477 29 31 29H33C33.5523 29 34 28.5523 34 28V26H36C36.5523 26 37 25.5523 37 25V23C37 22.4477 36.5523 22 36 22Z" fill="#2AB3A6"/>
</svg>
